<svg width="213" height="143" viewBox="0 0 213 143" fill="none" xmlns="http://www.w3.org/2000/svg">
<path d="M142.99 21.741V21.7761H129.878L117.364 9.27643H94.2636L77.93 25.5822V48.6433L82.1084 52.8146V65.9392L68.6377 52.4845V21.741L90.4159 0H121.212L142.99 21.741Z" fill="white"/>
<path d="M129.878 52.4561H142.99V52.4841L121.212 74.2251H101.636V64.9487H117.364L129.878 52.4561Z" fill="white"/>
<path d="M113.516 18.5605H98.1113L87.2292 29.424V71.038L96.5215 80.3145V54.0792L98.1183 55.6733H113.516L124.405 44.8028V29.424L113.516 18.5605ZM115.106 40.9546L109.662 46.3898H101.966L101.635 46.0598L99.075 43.5037L96.5215 40.9546V33.2722L101.966 27.837H109.669L115.113 33.2722V40.9546H115.106Z" fill="white"/>
<path d="M0 111.686C0 110.19 0.28137 108.701 0.844113 107.213C1.40686 105.731 2.22283 104.404 3.30612 103.231C4.38236 102.065 5.69778 101.117 7.23829 100.394C8.78584 99.6708 10.5374 99.3057 12.507 99.3057C14.8494 99.3057 16.8823 99.8113 18.5987 100.815C20.3221 101.82 21.6023 103.133 22.4464 104.741L18.0219 107.824C17.7405 107.171 17.3817 106.623 16.9526 106.195C16.5165 105.759 16.0452 105.415 15.5317 105.141C15.0182 104.874 14.4906 104.685 13.949 104.579C13.4074 104.474 12.8798 104.425 12.3663 104.425C11.2689 104.425 10.3052 104.65 9.48926 105.092C8.66625 105.534 7.99096 106.11 7.44932 106.812C6.90768 107.515 6.51375 108.308 6.25349 109.2C5.99322 110.092 5.86661 110.991 5.86661 111.897C5.86661 112.88 6.02136 113.828 6.32383 114.734C6.62631 115.647 7.06946 116.454 7.63924 117.156C8.21605 117.859 8.90541 118.413 9.71436 118.821C10.5233 119.228 11.4307 119.432 12.4366 119.432C12.9501 119.432 13.4847 119.368 14.0334 119.242C14.5821 119.116 15.1097 118.912 15.6161 118.645C16.1226 118.378 16.5798 118.027 17.0019 117.592C17.4239 117.156 17.7616 116.63 18.0219 115.998L22.7278 118.764C22.355 119.677 21.7993 120.492 21.0607 121.222C20.3221 121.945 19.4709 122.556 18.5143 123.048C17.5506 123.54 16.5376 123.912 15.4614 124.172C14.3851 124.431 13.33 124.558 12.303 124.558C10.5022 124.558 8.8421 124.193 7.32973 123.455C5.81736 122.718 4.52305 121.742 3.43274 120.527C2.34242 119.312 1.4983 117.929 0.900389 116.391C0.295439 114.846 0 113.28 0 111.686Z" fill="white"/>
<path d="M36.2828 124.558C34.4328 124.558 32.7446 124.192 31.2252 123.469C29.7058 122.746 28.4044 121.791 27.3282 120.611C26.2519 119.431 25.4148 118.083 24.8169 116.559C24.219 115.042 23.9236 113.476 23.9236 111.861C23.9236 110.225 24.2331 108.645 24.8521 107.128C25.4711 105.611 26.3363 104.27 27.4548 103.112C28.5662 101.953 29.8816 101.033 31.4081 100.345C32.9275 99.6566 34.5946 99.3125 36.3954 99.3125C38.2454 99.3125 39.9336 99.6777 41.453 100.401C42.9724 101.124 44.2738 102.086 45.35 103.273C46.4263 104.467 47.2563 105.822 47.8472 107.339C48.4311 108.856 48.7265 110.401 48.7265 111.967C48.7265 113.603 48.417 115.183 47.798 116.7C47.1789 118.216 46.3137 119.558 45.2164 120.716C44.112 121.875 42.8036 122.802 41.2842 123.504C39.7507 124.206 38.0836 124.558 36.2828 124.558ZM29.7832 111.932C29.7832 112.894 29.9238 113.821 30.2052 114.719C30.4866 115.618 30.9016 116.419 31.4503 117.121C31.999 117.823 32.6883 118.385 33.5043 118.806C34.3203 119.228 35.2629 119.438 36.311 119.438C37.4083 119.438 38.372 119.214 39.188 118.771C40.004 118.329 40.6863 117.746 41.2279 117.037C41.7696 116.327 42.1705 115.52 42.4378 114.614C42.7051 113.715 42.8388 112.795 42.8388 111.861C42.8388 110.906 42.6981 109.972 42.4167 109.073C42.1354 108.175 41.7133 107.381 41.1506 106.686C40.5878 105.998 39.9055 105.45 39.0965 105.036C38.2876 104.628 37.3591 104.425 36.3039 104.425C35.1995 104.425 34.2499 104.642 33.441 105.071C32.632 105.506 31.9567 106.068 31.401 106.77C30.8524 107.472 30.4373 108.273 30.17 109.172C29.9168 110.078 29.7832 110.998 29.7832 111.932Z" fill="white"/>
<path d="M52.0537 124.347V99.4531H63.2945C64.4622 99.4531 65.5455 99.6989 66.5444 100.19C67.5362 100.682 68.4014 101.328 69.1259 102.122C69.8505 102.915 70.4203 103.814 70.8282 104.818C71.2362 105.822 71.4402 106.841 71.4402 107.866C71.4402 108.638 71.3488 109.383 71.1589 110.092C70.9689 110.808 70.7016 111.475 70.3499 112.107C69.9982 112.739 69.5691 113.308 69.0697 113.807C68.5632 114.312 68.0005 114.734 67.3674 115.085L72.8471 124.34H66.3474L61.5711 116.307H57.8148V124.34H52.0537V124.347ZM57.8148 111.3H63.0835C63.7658 111.3 64.3497 110.977 64.8421 110.338C65.3345 109.692 65.5807 108.87 65.5807 107.866C65.5807 106.841 65.2993 106.019 64.7365 105.408C64.1738 104.797 63.5618 104.495 62.9076 104.495H57.8148V111.3Z" fill="white"/>
<path d="M93.113 119.298V124.347H75.5835V99.4531H92.7964V104.502H81.3446V109.34H91.1785V114.003H81.3446V119.298H93.113Z" fill="white"/>
<path d="M96.6299 124.347V99.4531H107.273C108.469 99.4531 109.559 99.6989 110.558 100.19C111.55 100.682 112.408 101.328 113.125 102.122C113.843 102.915 114.399 103.814 114.814 104.818C115.222 105.822 115.426 106.841 115.426 107.866C115.426 108.961 115.236 110.015 114.849 111.019C114.462 112.023 113.92 112.922 113.231 113.715C112.541 114.509 111.704 115.141 110.72 115.611C109.735 116.082 108.644 116.314 107.456 116.314H102.398V124.347H96.6299ZM102.391 111.3H107.097C107.779 111.3 108.363 111.005 108.855 110.422C109.348 109.839 109.594 108.982 109.594 107.859C109.594 107.276 109.517 106.77 109.369 106.349C109.214 105.928 109.01 105.577 108.757 105.296C108.497 105.015 108.208 104.811 107.878 104.685C107.547 104.558 107.224 104.495 106.893 104.495H102.398V111.3H102.391Z" fill="white"/>
<path d="M118.514 124.347V99.4531H129.755C130.922 99.4531 132.006 99.6989 133.005 100.19C133.996 100.682 134.862 101.328 135.586 102.122C136.311 102.915 136.88 103.814 137.288 104.818C137.696 105.822 137.9 106.841 137.9 107.866C137.9 108.638 137.809 109.383 137.619 110.092C137.429 110.808 137.162 111.475 136.81 112.107C136.458 112.739 136.029 113.308 135.53 113.807C135.023 114.312 134.461 114.734 133.828 115.085L139.307 124.34H132.808L128.031 116.307H124.275V124.34H118.514V124.347ZM124.275 111.3H129.544C130.226 111.3 130.81 110.977 131.302 110.338C131.795 109.692 132.041 108.87 132.041 107.866C132.041 106.841 131.759 106.019 131.197 105.408C130.634 104.797 130.022 104.495 129.368 104.495H124.275V111.3Z" fill="white"/>
<path d="M152.968 124.558C151.118 124.558 149.429 124.192 147.91 123.469C146.391 122.746 145.089 121.791 144.013 120.611C142.937 119.431 142.1 118.083 141.502 116.559C140.904 115.042 140.608 113.476 140.608 111.861C140.608 110.225 140.918 108.645 141.537 107.128C142.156 105.611 143.021 104.27 144.14 103.112C145.251 101.953 146.566 101.033 148.093 100.345C149.612 99.6566 151.279 99.3125 153.08 99.3125C154.93 99.3125 156.618 99.6777 158.138 100.401C159.657 101.124 160.959 102.086 162.035 103.273C163.111 104.467 163.941 105.822 164.532 107.339C165.116 108.856 165.411 110.401 165.411 111.967C165.411 113.603 165.102 115.183 164.483 116.7C163.864 118.216 162.999 119.558 161.901 120.716C160.804 121.875 159.488 122.802 157.969 123.504C156.436 124.206 154.768 124.558 152.968 124.558ZM146.468 111.932C146.468 112.894 146.609 113.821 146.89 114.719C147.171 115.618 147.586 116.419 148.135 117.121C148.684 117.823 149.373 118.385 150.189 118.806C151.005 119.228 151.948 119.438 152.996 119.438C154.093 119.438 155.057 119.214 155.873 118.771C156.696 118.329 157.371 117.746 157.913 117.037C158.454 116.327 158.855 115.52 159.123 114.614C159.39 113.715 159.524 112.795 159.524 111.861C159.524 110.906 159.383 109.972 159.102 109.073C158.82 108.175 158.398 107.381 157.835 106.686C157.273 105.998 156.59 105.45 155.781 105.036C154.972 104.628 154.044 104.425 152.989 104.425C151.884 104.425 150.935 104.642 150.126 105.071C149.317 105.506 148.642 106.068 148.086 106.77C147.537 107.472 147.122 108.273 146.855 109.172C146.609 110.078 146.468 110.998 146.468 111.932Z" fill="white"/>
<path d="M179.663 124.558C177.813 124.558 176.124 124.192 174.605 123.469C173.086 122.746 171.784 121.791 170.708 120.611C169.632 119.431 168.795 118.083 168.197 116.559C167.599 115.042 167.303 113.476 167.303 111.861C167.303 110.225 167.613 108.645 168.232 107.128C168.851 105.611 169.716 104.27 170.835 103.112C171.946 101.953 173.262 101.033 174.788 100.345C176.307 99.6566 177.974 99.3125 179.775 99.3125C181.625 99.3125 183.314 99.6777 184.833 100.401C186.352 101.124 187.654 102.086 188.73 103.273C189.806 104.467 190.636 105.822 191.227 107.339C191.811 108.856 192.106 110.401 192.106 111.967C192.106 113.603 191.797 115.183 191.178 116.7C190.559 118.216 189.694 119.558 188.596 120.716C187.499 121.875 186.184 122.802 184.664 123.504C183.131 124.206 181.464 124.558 179.663 124.558ZM173.163 111.932C173.163 112.894 173.304 113.821 173.585 114.719C173.866 115.618 174.281 116.419 174.83 117.121C175.379 117.823 176.068 118.385 176.884 118.806C177.7 119.228 178.643 119.438 179.691 119.438C180.788 119.438 181.752 119.214 182.568 118.771C183.391 118.329 184.066 117.746 184.608 117.037C185.149 116.327 185.55 115.52 185.818 114.614C186.085 113.715 186.219 112.795 186.219 111.861C186.219 110.906 186.078 109.972 185.797 109.073C185.515 108.175 185.093 107.381 184.53 106.686C183.968 105.998 183.285 105.45 182.476 105.036C181.667 104.628 180.739 104.425 179.684 104.425C178.579 104.425 177.63 104.642 176.821 105.071C176.012 105.506 175.337 106.068 174.781 106.77C174.232 107.472 173.817 108.273 173.55 109.172C173.297 110.078 173.163 110.998 173.163 111.932Z" fill="white"/>
<path d="M195.434 124.347V99.4531H212.365V104.502H201.195V109.867H210.396V114.53H201.195V124.347H195.434Z" fill="white"/>
<path d="M65.717 142.662V132.563H66.7159V142.662H65.717Z" fill="white"/>
<path d="M70.2472 134.41V142.662H69.2483V132.563H70.015L76.7117 140.969V132.578H77.7105V142.662H76.8383L70.2472 134.41Z" fill="white"/>
<path d="M80.2427 142.662V132.563H83.6754C84.4843 132.563 85.1878 132.697 85.7927 132.964C86.3977 133.231 86.8971 133.589 87.3051 134.045C87.7061 134.502 88.0156 135.035 88.2196 135.646C88.4236 136.257 88.5291 136.91 88.5291 137.598C88.5291 138.364 88.4165 139.059 88.1844 139.684C87.9523 140.309 87.6287 140.836 87.2066 141.278C86.7846 141.721 86.2781 142.058 85.6802 142.303C85.0893 142.542 84.421 142.669 83.6754 142.669H80.2427V142.662ZM87.5232 137.598C87.5232 136.995 87.4387 136.433 87.2699 135.927C87.1011 135.422 86.8479 134.979 86.5243 134.614C86.1937 134.242 85.7927 133.961 85.3214 133.75C84.8431 133.547 84.3015 133.441 83.6824 133.441H81.2486V141.777H83.6824C84.3085 141.777 84.8642 141.671 85.3425 141.454C85.8209 141.243 86.2218 140.948 86.5454 140.569C86.869 140.197 87.1152 139.754 87.277 139.249C87.4388 138.75 87.5232 138.195 87.5232 137.598Z" fill="white"/>
<path d="M94.5294 141.832C95.1625 141.832 95.6971 141.713 96.1191 141.467C96.5412 141.228 96.8788 140.905 97.1321 140.512C97.3853 140.119 97.5612 139.669 97.6596 139.171C97.7581 138.665 97.8074 138.159 97.8074 137.647V132.556H98.8062V137.647C98.8062 138.328 98.7288 138.974 98.5811 139.585C98.4264 140.196 98.1872 140.737 97.8496 141.2C97.5119 141.664 97.0758 142.036 96.5341 142.31C95.9925 142.583 95.3313 142.724 94.5575 142.724C93.7626 142.724 93.0873 142.576 92.5387 142.289C91.99 142.001 91.5539 141.621 91.2233 141.144C90.8926 140.673 90.6535 140.133 90.5128 139.522C90.3721 138.918 90.3018 138.293 90.3018 137.647V132.556H91.2866V137.647C91.2866 138.181 91.3358 138.693 91.4413 139.199C91.5468 139.704 91.7227 140.147 91.9759 140.533C92.2292 140.919 92.5598 141.235 92.9818 141.474C93.3828 141.72 93.9033 141.832 94.5294 141.832Z" fill="white"/>
<path d="M107.093 134.452C106.811 134.129 106.432 133.87 105.953 133.673C105.475 133.476 104.94 133.371 104.328 133.371C103.435 133.371 102.788 133.539 102.38 133.877C101.972 134.214 101.768 134.67 101.768 135.246C101.768 135.548 101.824 135.801 101.93 135.99C102.042 136.187 102.204 136.355 102.436 136.496C102.661 136.636 102.957 136.763 103.315 136.868C103.674 136.973 104.089 137.079 104.574 137.184C105.116 137.296 105.601 137.423 106.038 137.57C106.467 137.711 106.84 137.893 107.142 138.104C107.444 138.315 107.677 138.574 107.838 138.876C108 139.178 108.078 139.558 108.078 140.014C108.078 140.478 107.986 140.885 107.81 141.222C107.627 141.566 107.381 141.847 107.058 142.079C106.734 142.303 106.347 142.472 105.904 142.584C105.461 142.697 104.968 142.746 104.434 142.746C102.865 142.746 101.515 142.254 100.375 141.278L100.874 140.47C101.057 140.66 101.268 140.843 101.522 141.011C101.775 141.18 102.056 141.334 102.359 141.461C102.668 141.587 102.999 141.685 103.351 141.763C103.702 141.833 104.075 141.868 104.462 141.868C105.271 141.868 105.897 141.72 106.347 141.433C106.797 141.145 107.022 140.702 107.022 140.119C107.022 139.803 106.959 139.544 106.832 139.333C106.706 139.122 106.509 138.933 106.256 138.778C106.002 138.624 105.679 138.483 105.299 138.371C104.919 138.258 104.476 138.146 103.977 138.027C103.442 137.9 102.978 137.774 102.584 137.64C102.183 137.507 101.845 137.339 101.571 137.142C101.296 136.945 101.085 136.707 100.952 136.426C100.811 136.145 100.748 135.801 100.748 135.393C100.748 134.93 100.832 134.516 101.008 134.15C101.184 133.785 101.43 133.483 101.754 133.238C102.077 132.999 102.457 132.809 102.893 132.683C103.329 132.556 103.815 132.493 104.349 132.493C105.025 132.493 105.623 132.598 106.15 132.802C106.678 133.006 107.156 133.294 107.585 133.666L107.093 134.452Z" fill="white"/>
<path d="M116.941 133.448H113.339V142.662H112.34V133.448H108.739V132.563H116.941V133.448Z" fill="white"/>
<path d="M118.446 142.662V132.563H122.723C123.159 132.563 123.56 132.655 123.926 132.837C124.292 133.02 124.608 133.266 124.875 133.561C125.143 133.863 125.347 134.2 125.494 134.579C125.642 134.958 125.712 135.344 125.712 135.731C125.712 136.103 125.656 136.454 125.551 136.791C125.438 137.128 125.29 137.43 125.093 137.704C124.896 137.971 124.664 138.202 124.39 138.385C124.116 138.568 123.806 138.694 123.461 138.764L125.938 142.662H124.812L122.434 138.933H119.445V142.662H118.446ZM119.445 138.055H122.751C123.046 138.055 123.314 137.992 123.553 137.865C123.792 137.739 124.003 137.563 124.172 137.346C124.341 137.128 124.474 136.882 124.573 136.608C124.664 136.334 124.714 136.047 124.714 135.738C124.714 135.429 124.657 135.141 124.552 134.86C124.439 134.579 124.299 134.333 124.109 134.129C123.926 133.919 123.708 133.757 123.454 133.631C123.201 133.504 122.941 133.448 122.667 133.448H119.445V138.055Z" fill="white"/>
<path d="M127.752 142.662V132.563H128.751V142.662H127.752Z" fill="white"/>
<path d="M138.079 141.777V142.662H131.284V132.563H137.952V133.448H132.283V137.086H137.228V137.921H132.283V141.777H138.079Z" fill="white"/>
<path d="M145.655 134.452C145.373 134.129 144.986 133.87 144.515 133.673C144.037 133.476 143.502 133.371 142.89 133.371C141.997 133.371 141.35 133.539 140.942 133.877C140.534 134.214 140.33 134.67 140.33 135.246C140.33 135.548 140.386 135.801 140.492 135.99C140.604 136.187 140.766 136.355 140.998 136.496C141.223 136.636 141.519 136.763 141.877 136.868C142.236 136.973 142.651 137.079 143.136 137.184C143.678 137.296 144.163 137.423 144.6 137.57C145.029 137.711 145.402 137.893 145.704 138.104C146.006 138.315 146.239 138.574 146.4 138.876C146.562 139.178 146.64 139.558 146.64 140.014C146.64 140.478 146.548 140.885 146.372 141.222C146.189 141.566 145.943 141.847 145.62 142.079C145.296 142.303 144.909 142.472 144.466 142.584C144.023 142.697 143.53 142.746 142.996 142.746C141.427 142.746 140.077 142.254 138.937 141.278L139.436 140.47C139.619 140.66 139.83 140.843 140.084 141.011C140.337 141.18 140.618 141.334 140.921 141.461C141.23 141.587 141.561 141.685 141.913 141.763C142.264 141.84 142.637 141.868 143.024 141.868C143.833 141.868 144.459 141.72 144.909 141.433C145.359 141.145 145.584 140.702 145.584 140.119C145.584 139.803 145.521 139.544 145.394 139.333C145.268 139.122 145.071 138.933 144.818 138.778C144.564 138.624 144.241 138.483 143.861 138.371C143.481 138.258 143.038 138.146 142.539 138.027C142.004 137.9 141.54 137.774 141.146 137.64C140.745 137.507 140.407 137.339 140.133 137.142C139.859 136.945 139.655 136.707 139.514 136.426C139.373 136.145 139.31 135.801 139.31 135.393C139.31 134.93 139.394 134.516 139.57 134.15C139.746 133.785 139.992 133.483 140.316 133.238C140.639 132.999 141.019 132.809 141.455 132.683C141.891 132.556 142.377 132.493 142.911 132.493C143.587 132.493 144.185 132.598 144.712 132.802C145.24 133.006 145.718 133.294 146.14 133.666L145.655 134.452Z" fill="white"/>
</svg>
