<svg width="62" height="67" viewBox="0 0 62 67" fill="none" xmlns="http://www.w3.org/2000/svg">
<path d="M61.9993 18.3547V18.3835H51.2369L40.9652 8.1031H22.0039L8.59698 21.5139V40.4807L12.0267 43.9114V54.7058L0.969727 43.6399V18.3547L18.8456 0.473633H44.1235L61.9993 18.3547Z" fill="#BBED05"/>
<path d="M51.2374 43.6162H61.9999V43.6393L44.124 61.5203H28.0554V53.8909H40.9657L51.2374 43.6162Z" fill="#BBED05"/>
<path d="M37.8071 15.7363H25.1624L16.2302 24.6711V58.8968L23.8575 66.5263V44.9489L25.1681 46.26H37.8071L46.745 37.3195V24.6711L37.8071 15.7363ZM39.112 34.1545L34.643 38.6247H28.3264L28.0551 38.3533L25.9534 36.251L23.8575 34.1545V27.8361L28.3264 23.3658H34.6488L39.1178 27.8361V34.1545H39.112Z" fill="#BBED05"/>
</svg>
