<svg width="221" height="151" viewBox="0 0 221 151" fill="none" xmlns="http://www.w3.org/2000/svg">
<g filter="url(#filter0_dd_3_5181)">
<path d="M146.99 21.741V21.7761H133.878L121.364 9.27643H98.2636L81.93 25.5822V48.6433L86.1084 52.8146V65.9392L72.6377 52.4845V21.741L94.4159 0H125.212L146.99 21.741Z" fill="#FA653C"/>
<path d="M133.878 52.4561H146.99V52.4841L125.212 74.2251H105.636V64.9487H121.364L133.878 52.4561Z" fill="#FA653C"/>
<path d="M117.516 18.5605H102.111L91.2292 29.424V71.038L100.522 80.3145V54.0792L102.118 55.6733H117.516L128.405 44.8028V29.424L117.516 18.5605ZM119.106 40.9546L113.662 46.3898H105.966L105.635 46.0598L103.075 43.5037L100.522 40.9546V33.2722L105.966 27.837H113.669L119.113 33.2722V40.9546H119.106Z" fill="#FA653C"/>
<path d="M4 111.686C4 110.19 4.28137 108.701 4.84411 107.213C5.40686 105.731 6.22283 104.404 7.30612 103.231C8.38236 102.065 9.69778 101.117 11.2383 100.394C12.7858 99.6708 14.5374 99.3057 16.507 99.3057C18.8494 99.3057 20.8823 99.8113 22.5987 100.815C24.3221 101.82 25.6023 103.133 26.4464 104.741L22.0219 107.824C21.7405 107.171 21.3817 106.623 20.9526 106.195C20.5165 105.759 20.0452 105.415 19.5317 105.141C19.0182 104.874 18.4906 104.685 17.949 104.579C17.4074 104.474 16.8798 104.425 16.3663 104.425C15.2689 104.425 14.3052 104.65 13.4893 105.092C12.6663 105.534 11.991 106.11 11.4493 106.812C10.9077 107.515 10.5138 108.308 10.2535 109.2C9.99322 110.092 9.86661 110.991 9.86661 111.897C9.86661 112.88 10.0214 113.828 10.3238 114.734C10.6263 115.647 11.0695 116.454 11.6392 117.156C12.2161 117.859 12.9054 118.413 13.7144 118.821C14.5233 119.228 15.4307 119.432 16.4366 119.432C16.9501 119.432 17.4847 119.368 18.0334 119.242C18.5821 119.116 19.1097 118.912 19.6161 118.645C20.1226 118.378 20.5798 118.027 21.0019 117.592C21.4239 117.156 21.7616 116.63 22.0219 115.998L26.7278 118.764C26.355 119.677 25.7993 120.492 25.0607 121.222C24.3221 121.945 23.4709 122.556 22.5143 123.048C21.5506 123.54 20.5376 123.912 19.4614 124.172C18.3851 124.431 17.33 124.558 16.303 124.558C14.5022 124.558 12.8421 124.193 11.3297 123.455C9.81736 122.718 8.52305 121.742 7.43274 120.527C6.34242 119.312 5.4983 117.929 4.90039 116.391C4.29544 114.846 4 113.28 4 111.686Z" fill="#FA653C"/>
<path d="M40.2828 124.558C38.4328 124.558 36.7446 124.192 35.2252 123.469C33.7058 122.746 32.4044 121.791 31.3282 120.611C30.2519 119.431 29.4148 118.083 28.8169 116.559C28.219 115.042 27.9236 113.476 27.9236 111.861C27.9236 110.225 28.2331 108.645 28.8521 107.128C29.4711 105.611 30.3363 104.27 31.4548 103.112C32.5662 101.953 33.8816 101.033 35.4081 100.345C36.9275 99.6566 38.5946 99.3125 40.3954 99.3125C42.2454 99.3125 43.9336 99.6777 45.453 100.401C46.9724 101.124 48.2738 102.086 49.35 103.273C50.4263 104.467 51.2563 105.822 51.8472 107.339C52.4311 108.856 52.7265 110.401 52.7265 111.967C52.7265 113.603 52.417 115.183 51.798 116.7C51.1789 118.216 50.3137 119.558 49.2164 120.716C48.112 121.875 46.8036 122.802 45.2842 123.504C43.7507 124.206 42.0836 124.558 40.2828 124.558ZM33.7832 111.932C33.7832 112.894 33.9238 113.821 34.2052 114.719C34.4866 115.618 34.9016 116.419 35.4503 117.121C35.999 117.823 36.6883 118.385 37.5043 118.806C38.3203 119.228 39.2629 119.438 40.311 119.438C41.4083 119.438 42.372 119.214 43.188 118.771C44.004 118.329 44.6863 117.746 45.2279 117.037C45.7696 116.327 46.1705 115.52 46.4378 114.614C46.7051 113.715 46.8388 112.795 46.8388 111.861C46.8388 110.906 46.6981 109.972 46.4167 109.073C46.1354 108.175 45.7133 107.381 45.1506 106.686C44.5878 105.998 43.9055 105.45 43.0965 105.036C42.2876 104.628 41.3591 104.425 40.3039 104.425C39.1995 104.425 38.2499 104.642 37.441 105.071C36.632 105.506 35.9567 106.068 35.401 106.77C34.8524 107.472 34.4373 108.273 34.17 109.172C33.9168 110.078 33.7832 110.998 33.7832 111.932Z" fill="#FA653C"/>
<path d="M56.0537 124.347V99.4531H67.2945C68.4622 99.4531 69.5455 99.6989 70.5444 100.19C71.5362 100.682 72.4014 101.328 73.1259 102.122C73.8505 102.915 74.4203 103.814 74.8282 104.818C75.2362 105.822 75.4402 106.841 75.4402 107.866C75.4402 108.638 75.3488 109.383 75.1589 110.092C74.9689 110.808 74.7016 111.475 74.3499 112.107C73.9982 112.739 73.5691 113.308 73.0697 113.807C72.5632 114.312 72.0005 114.734 71.3674 115.085L76.8471 124.34H70.3474L65.5711 116.307H61.8148V124.34H56.0537V124.347ZM61.8148 111.3H67.0835C67.7658 111.3 68.3497 110.977 68.8421 110.338C69.3345 109.692 69.5807 108.87 69.5807 107.866C69.5807 106.841 69.2993 106.019 68.7365 105.408C68.1738 104.797 67.5618 104.495 66.9076 104.495H61.8148V111.3Z" fill="#FA653C"/>
<path d="M97.113 119.298V124.347H79.5835V99.4531H96.7964V104.502H85.3446V109.34H95.1785V114.003H85.3446V119.298H97.113Z" fill="#FA653C"/>
<path d="M100.63 124.347V99.4531H111.273C112.469 99.4531 113.559 99.6989 114.558 100.19C115.55 100.682 116.408 101.328 117.125 102.122C117.843 102.915 118.399 103.814 118.814 104.818C119.222 105.822 119.426 106.841 119.426 107.866C119.426 108.961 119.236 110.015 118.849 111.019C118.462 112.023 117.92 112.922 117.231 113.715C116.541 114.509 115.704 115.141 114.72 115.611C113.735 116.082 112.644 116.314 111.456 116.314H106.398V124.347H100.63ZM106.391 111.3H111.097C111.779 111.3 112.363 111.005 112.855 110.422C113.348 109.839 113.594 108.982 113.594 107.859C113.594 107.276 113.517 106.77 113.369 106.349C113.214 105.928 113.01 105.577 112.757 105.296C112.497 105.015 112.208 104.811 111.878 104.685C111.547 104.558 111.224 104.495 110.893 104.495H106.398V111.3H106.391Z" fill="#FA653C"/>
<path d="M122.514 124.347V99.4531H133.755C134.922 99.4531 136.006 99.6989 137.005 100.19C137.996 100.682 138.862 101.328 139.586 102.122C140.311 102.915 140.88 103.814 141.288 104.818C141.696 105.822 141.9 106.841 141.9 107.866C141.9 108.638 141.809 109.383 141.619 110.092C141.429 110.808 141.162 111.475 140.81 112.107C140.458 112.739 140.029 113.308 139.53 113.807C139.023 114.312 138.461 114.734 137.828 115.085L143.307 124.34H136.808L132.031 116.307H128.275V124.34H122.514V124.347ZM128.275 111.3H133.544C134.226 111.3 134.81 110.977 135.302 110.338C135.795 109.692 136.041 108.87 136.041 107.866C136.041 106.841 135.759 106.019 135.197 105.408C134.634 104.797 134.022 104.495 133.368 104.495H128.275V111.3Z" fill="#FA653C"/>
<path d="M156.968 124.558C155.118 124.558 153.429 124.192 151.91 123.469C150.391 122.746 149.089 121.791 148.013 120.611C146.937 119.431 146.1 118.083 145.502 116.559C144.904 115.042 144.608 113.476 144.608 111.861C144.608 110.225 144.918 108.645 145.537 107.128C146.156 105.611 147.021 104.27 148.14 103.112C149.251 101.953 150.566 101.033 152.093 100.345C153.612 99.6566 155.279 99.3125 157.08 99.3125C158.93 99.3125 160.618 99.6777 162.138 100.401C163.657 101.124 164.959 102.086 166.035 103.273C167.111 104.467 167.941 105.822 168.532 107.339C169.116 108.856 169.411 110.401 169.411 111.967C169.411 113.603 169.102 115.183 168.483 116.7C167.864 118.216 166.999 119.558 165.901 120.716C164.804 121.875 163.488 122.802 161.969 123.504C160.436 124.206 158.768 124.558 156.968 124.558ZM150.468 111.932C150.468 112.894 150.609 113.821 150.89 114.719C151.171 115.618 151.586 116.419 152.135 117.121C152.684 117.823 153.373 118.385 154.189 118.806C155.005 119.228 155.948 119.438 156.996 119.438C158.093 119.438 159.057 119.214 159.873 118.771C160.696 118.329 161.371 117.746 161.913 117.037C162.454 116.327 162.855 115.52 163.123 114.614C163.39 113.715 163.524 112.795 163.524 111.861C163.524 110.906 163.383 109.972 163.102 109.073C162.82 108.175 162.398 107.381 161.835 106.686C161.273 105.998 160.59 105.45 159.781 105.036C158.972 104.628 158.044 104.425 156.989 104.425C155.884 104.425 154.935 104.642 154.126 105.071C153.317 105.506 152.642 106.068 152.086 106.77C151.537 107.472 151.122 108.273 150.855 109.172C150.609 110.078 150.468 110.998 150.468 111.932Z" fill="#FA653C"/>
<path d="M183.663 124.558C181.813 124.558 180.124 124.192 178.605 123.469C177.086 122.746 175.784 121.791 174.708 120.611C173.632 119.431 172.795 118.083 172.197 116.559C171.599 115.042 171.303 113.476 171.303 111.861C171.303 110.225 171.613 108.645 172.232 107.128C172.851 105.611 173.716 104.27 174.835 103.112C175.946 101.953 177.262 101.033 178.788 100.345C180.307 99.6566 181.974 99.3125 183.775 99.3125C185.625 99.3125 187.314 99.6777 188.833 100.401C190.352 101.124 191.654 102.086 192.73 103.273C193.806 104.467 194.636 105.822 195.227 107.339C195.811 108.856 196.106 110.401 196.106 111.967C196.106 113.603 195.797 115.183 195.178 116.7C194.559 118.216 193.694 119.558 192.596 120.716C191.499 121.875 190.184 122.802 188.664 123.504C187.131 124.206 185.464 124.558 183.663 124.558ZM177.163 111.932C177.163 112.894 177.304 113.821 177.585 114.719C177.866 115.618 178.281 116.419 178.83 117.121C179.379 117.823 180.068 118.385 180.884 118.806C181.7 119.228 182.643 119.438 183.691 119.438C184.788 119.438 185.752 119.214 186.568 118.771C187.391 118.329 188.066 117.746 188.608 117.037C189.149 116.327 189.55 115.52 189.818 114.614C190.085 113.715 190.219 112.795 190.219 111.861C190.219 110.906 190.078 109.972 189.797 109.073C189.515 108.175 189.093 107.381 188.53 106.686C187.968 105.998 187.285 105.45 186.476 105.036C185.667 104.628 184.739 104.425 183.684 104.425C182.579 104.425 181.63 104.642 180.821 105.071C180.012 105.506 179.337 106.068 178.781 106.77C178.232 107.472 177.817 108.273 177.55 109.172C177.297 110.078 177.163 110.998 177.163 111.932Z" fill="#FA653C"/>
<path d="M199.434 124.347V99.4531H216.365V104.502H205.195V109.867H214.396V114.53H205.195V124.347H199.434Z" fill="#FA653C"/>
<path d="M69.717 142.662V132.563H70.7159V142.662H69.717Z" fill="#FA653C"/>
<path d="M74.2472 134.41V142.662H73.2483V132.563H74.015L80.7117 140.969V132.578H81.7105V142.662H80.8383L74.2472 134.41Z" fill="#FA653C"/>
<path d="M84.2427 142.662V132.563H87.6754C88.4843 132.563 89.1878 132.697 89.7927 132.964C90.3977 133.231 90.8971 133.589 91.3051 134.045C91.7061 134.502 92.0156 135.035 92.2196 135.646C92.4236 136.257 92.5291 136.91 92.5291 137.598C92.5291 138.364 92.4165 139.059 92.1844 139.684C91.9523 140.309 91.6287 140.836 91.2066 141.278C90.7846 141.721 90.2781 142.058 89.6802 142.303C89.0893 142.542 88.421 142.669 87.6754 142.669H84.2427V142.662ZM91.5232 137.598C91.5232 136.995 91.4387 136.433 91.2699 135.927C91.1011 135.422 90.8479 134.979 90.5243 134.614C90.1937 134.242 89.7927 133.961 89.3214 133.75C88.8431 133.547 88.3015 133.441 87.6824 133.441H85.2486V141.777H87.6824C88.3085 141.777 88.8642 141.671 89.3425 141.454C89.8209 141.243 90.2218 140.948 90.5454 140.569C90.869 140.197 91.1152 139.754 91.277 139.249C91.4388 138.75 91.5232 138.195 91.5232 137.598Z" fill="#FA653C"/>
<path d="M98.5294 141.832C99.1625 141.832 99.6971 141.713 100.119 141.467C100.541 141.228 100.879 140.905 101.132 140.512C101.385 140.119 101.561 139.669 101.66 139.171C101.758 138.665 101.807 138.159 101.807 137.647V132.556H102.806V137.647C102.806 138.328 102.729 138.974 102.581 139.585C102.426 140.196 102.187 140.737 101.85 141.2C101.512 141.664 101.076 142.036 100.534 142.31C99.9925 142.583 99.3313 142.724 98.5575 142.724C97.7626 142.724 97.0873 142.576 96.5387 142.289C95.99 142.001 95.5539 141.621 95.2233 141.144C94.8926 140.673 94.6535 140.133 94.5128 139.522C94.3721 138.918 94.3018 138.293 94.3018 137.647V132.556H95.2866V137.647C95.2866 138.181 95.3358 138.693 95.4413 139.199C95.5468 139.704 95.7227 140.147 95.9759 140.533C96.2292 140.919 96.5598 141.235 96.9818 141.474C97.3828 141.72 97.9033 141.832 98.5294 141.832Z" fill="#FA653C"/>
<path d="M111.093 134.452C110.811 134.129 110.432 133.87 109.953 133.673C109.475 133.476 108.94 133.371 108.328 133.371C107.435 133.371 106.788 133.539 106.38 133.877C105.972 134.214 105.768 134.67 105.768 135.246C105.768 135.548 105.824 135.801 105.93 135.99C106.042 136.187 106.204 136.355 106.436 136.496C106.661 136.636 106.957 136.763 107.315 136.868C107.674 136.973 108.089 137.079 108.574 137.184C109.116 137.296 109.601 137.423 110.038 137.57C110.467 137.711 110.84 137.893 111.142 138.104C111.444 138.315 111.677 138.574 111.838 138.876C112 139.178 112.078 139.558 112.078 140.014C112.078 140.478 111.986 140.885 111.81 141.222C111.627 141.566 111.381 141.847 111.058 142.079C110.734 142.303 110.347 142.472 109.904 142.584C109.461 142.697 108.968 142.746 108.434 142.746C106.865 142.746 105.515 142.254 104.375 141.278L104.874 140.47C105.057 140.66 105.268 140.843 105.522 141.011C105.775 141.18 106.056 141.334 106.359 141.461C106.668 141.587 106.999 141.685 107.351 141.763C107.702 141.833 108.075 141.868 108.462 141.868C109.271 141.868 109.897 141.72 110.347 141.433C110.797 141.145 111.022 140.702 111.022 140.119C111.022 139.803 110.959 139.544 110.832 139.333C110.706 139.122 110.509 138.933 110.256 138.778C110.002 138.624 109.679 138.483 109.299 138.371C108.919 138.258 108.476 138.146 107.977 138.027C107.442 137.9 106.978 137.774 106.584 137.64C106.183 137.507 105.845 137.339 105.571 137.142C105.296 136.945 105.085 136.707 104.952 136.426C104.811 136.145 104.748 135.801 104.748 135.393C104.748 134.93 104.832 134.516 105.008 134.15C105.184 133.785 105.43 133.483 105.754 133.238C106.077 132.999 106.457 132.809 106.893 132.683C107.329 132.556 107.815 132.493 108.349 132.493C109.025 132.493 109.623 132.598 110.15 132.802C110.678 133.006 111.156 133.294 111.585 133.666L111.093 134.452Z" fill="#FA653C"/>
<path d="M120.941 133.448H117.339V142.662H116.34V133.448H112.739V132.563H120.941V133.448Z" fill="#FA653C"/>
<path d="M122.446 142.662V132.563H126.723C127.159 132.563 127.56 132.655 127.926 132.837C128.292 133.02 128.608 133.266 128.875 133.561C129.143 133.863 129.347 134.2 129.494 134.579C129.642 134.958 129.712 135.344 129.712 135.731C129.712 136.103 129.656 136.454 129.551 136.791C129.438 137.128 129.29 137.43 129.093 137.704C128.896 137.971 128.664 138.202 128.39 138.385C128.116 138.568 127.806 138.694 127.461 138.764L129.938 142.662H128.812L126.434 138.933H123.445V142.662H122.446ZM123.445 138.055H126.751C127.046 138.055 127.314 137.992 127.553 137.865C127.792 137.739 128.003 137.563 128.172 137.346C128.341 137.128 128.474 136.882 128.573 136.608C128.664 136.334 128.714 136.047 128.714 135.738C128.714 135.429 128.657 135.141 128.552 134.86C128.439 134.579 128.299 134.333 128.109 134.129C127.926 133.919 127.708 133.757 127.454 133.631C127.201 133.504 126.941 133.448 126.667 133.448H123.445V138.055Z" fill="#FA653C"/>
<path d="M131.752 142.662V132.563H132.751V142.662H131.752Z" fill="#FA653C"/>
<path d="M142.079 141.777V142.662H135.284V132.563H141.952V133.448H136.283V137.086H141.228V137.921H136.283V141.777H142.079Z" fill="#FA653C"/>
<path d="M149.655 134.452C149.373 134.129 148.986 133.87 148.515 133.673C148.037 133.476 147.502 133.371 146.89 133.371C145.997 133.371 145.35 133.539 144.942 133.877C144.534 134.214 144.33 134.67 144.33 135.246C144.33 135.548 144.386 135.801 144.492 135.99C144.604 136.187 144.766 136.355 144.998 136.496C145.223 136.636 145.519 136.763 145.877 136.868C146.236 136.973 146.651 137.079 147.136 137.184C147.678 137.296 148.163 137.423 148.6 137.57C149.029 137.711 149.402 137.893 149.704 138.104C150.006 138.315 150.239 138.574 150.4 138.876C150.562 139.178 150.64 139.558 150.64 140.014C150.64 140.478 150.548 140.885 150.372 141.222C150.189 141.566 149.943 141.847 149.62 142.079C149.296 142.303 148.909 142.472 148.466 142.584C148.023 142.697 147.53 142.746 146.996 142.746C145.427 142.746 144.077 142.254 142.937 141.278L143.436 140.47C143.619 140.66 143.83 140.843 144.084 141.011C144.337 141.18 144.618 141.334 144.921 141.461C145.23 141.587 145.561 141.685 145.913 141.763C146.264 141.84 146.637 141.868 147.024 141.868C147.833 141.868 148.459 141.72 148.909 141.433C149.359 141.145 149.584 140.702 149.584 140.119C149.584 139.803 149.521 139.544 149.394 139.333C149.268 139.122 149.071 138.933 148.818 138.778C148.564 138.624 148.241 138.483 147.861 138.371C147.481 138.258 147.038 138.146 146.539 138.027C146.004 137.9 145.54 137.774 145.146 137.64C144.745 137.507 144.407 137.339 144.133 137.142C143.859 136.945 143.655 136.707 143.514 136.426C143.373 136.145 143.31 135.801 143.31 135.393C143.31 134.93 143.394 134.516 143.57 134.15C143.746 133.785 143.992 133.483 144.316 133.238C144.639 132.999 145.019 132.809 145.455 132.683C145.891 132.556 146.377 132.493 146.911 132.493C147.587 132.493 148.185 132.598 148.712 132.802C149.24 133.006 149.718 133.294 150.14 133.666L149.655 134.452Z" fill="#FA653C"/>
</g>
<defs>
<filter id="filter0_dd_3_5181" x="0" y="0" width="220.365" height="150.746" filterUnits="userSpaceOnUse" color-interpolation-filters="sRGB">
<feFlood flood-opacity="0" result="BackgroundImageFix"/>
<feColorMatrix in="SourceAlpha" type="matrix" values="0 0 0 0 0 0 0 0 0 0 0 0 0 0 0 0 0 0 127 0" result="hardAlpha"/>
<feOffset dy="4"/>
<feGaussianBlur stdDeviation="2"/>
<feComposite in2="hardAlpha" operator="out"/>
<feColorMatrix type="matrix" values="0 0 0 0 0 0 0 0 0 0 0 0 0 0 0 0 0 0 0.25 0"/>
<feBlend mode="normal" in2="BackgroundImageFix" result="effect1_dropShadow_3_5181"/>
<feColorMatrix in="SourceAlpha" type="matrix" values="0 0 0 0 0 0 0 0 0 0 0 0 0 0 0 0 0 0 127 0" result="hardAlpha"/>
<feOffset dy="4"/>
<feGaussianBlur stdDeviation="2"/>
<feComposite in2="hardAlpha" operator="out"/>
<feColorMatrix type="matrix" values="0 0 0 0 0 0 0 0 0 0 0 0 0 0 0 0 0 0 0.25 0"/>
<feBlend mode="normal" in2="effect1_dropShadow_3_5181" result="effect2_dropShadow_3_5181"/>
<feBlend mode="normal" in="SourceGraphic" in2="effect2_dropShadow_3_5181" result="shape"/>
</filter>
</defs>
</svg>
